<svg xmlns="http://www.w3.org/2000/svg" xmlns:xlink="http://www.w3.org/1999/xlink" version="1.1" x="0px" y="0px" viewBox="0 0 100 100" style="enable-background:new 0 0 100 100;" xml:space="preserve"><style type="text/css">
	.st0{fill:#010101;}
</style><path class="st0" d="M88.4,59.8v-4.7c0,0,0-0.1,0-0.1c0-0.1,0-0.1,0-0.2c0-0.1,0-0.2-0.1-0.2c0,0,0-0.1,0-0.1L71.4,21.1  c-0.3-0.6-1-0.9-1.6-0.8L12.9,31.5c0,0,0,0,0,0h0c-0.2,0-0.4,0.1-0.5,0.2c0,0,0,0-0.1,0c0,0-0.1,0.1-0.1,0.1  C12,32,12,32.1,11.9,32.2c0,0.1-0.1,0.1-0.1,0.2c-0.1,0.2-0.1,0.3-0.1,0.5c0,0,0,0,0,0.1l-0.1,4.2c-2,0.1-3.4,0.8-4.2,2.1  c-1.5,2.4,0,5.5,0,5.5c0.7,1.5,2.3,2.3,3.8,2.6l-0.2,7.2c0,0.7,0.4,1.3,1.1,1.5l74.6,21.3c0.1,0,0.3,0,0.4,0c0.3,0,0.6-0.1,0.9-0.3  c0.4-0.3,0.6-0.7,0.6-1.2v-8.7c2.3-1,4.6-2,4.5-3.9C92.9,61.4,90.8,60.5,88.4,59.8z M69.2,23.5l14.8,29.2L19.3,33.3L69.2,23.5z   M87,64.5c-0.2,0.1-0.3,0.1-0.6,0.2c-1.2,0.5-2.6,1-4.6,1.1c-2.4,0.2-4.6,0.3-5.9-0.8c-0.5-0.4-0.6-0.8-0.8-1.3  c-0.3-0.7-0.7-1.7-1.8-2.5c-1.4-1-2.6-1-5.6-1.1h-0.3c-3.5-0.1-6.8-0.1-7.3-0.3c-1-0.6-1.4-1.4-1.9-2.4c-0.5-1.2-1.2-2.6-3.1-3.1  c-0.3-0.1-0.6-0.1-0.9-0.1c0,0,0,0-0.1,0c0,0,0,0,0,0c-0.2,0-0.4,0-0.6,0.1c0,0-0.1,0-0.1,0c-0.2,0-0.3,0.1-0.5,0.2c0,0,0,0-0.1,0  c-0.2,0.1-0.4,0.2-0.5,0.2c0,0-0.1,0-0.1,0.1c-0.2,0.1-0.3,0.2-0.5,0.2c-0.7,0.4-1.5,0.9-2.9,1c-0.3,0-2.9,0.3-5-1.1  c-1.1-0.7-1.5-1.5-1.9-2.3c-0.5-0.9-1.1-2-2.6-2.5c-1.9-0.6-3.3,0.5-4.6,1.4c-1.1,0.8-2.2,1.5-3.7,1.5c-1.9,0-3.4-1.2-4.3-2  c-1.2-1-1.9-1.9-2.4-2.8c-0.8-1.2-1.5-2.4-3.4-3.1c-0.3-0.1-0.6-0.2-0.9-0.2c-0.5-0.1-1-0.1-1.5,0c-0.5,0-1.2,0.1-2.5,0  c-1-0.1-2.1-0.2-3.1-0.3c-2.1-0.4-2.7-0.9-2.9-1.3c-0.2-0.3-0.7-1.9-0.1-2.7c0.3-0.5,1.3-0.8,2.6-0.8l0.1,0c2.8,0.9,5.5,1.7,8.2,2.5  c0.1,0,0.1,0,0.2,0c4.8,1.5,9.3,2.8,13.5,4.1c0.7,0.2,1.4,0.4,2,0.6c1.1,0.3,2.3,0.7,3.4,1c5.8,1.8,11.1,3.4,15.8,4.8  c17.7,5.4,27.5,8.3,31.1,9.2h0c0,0,0,0,0.1,0l0.4,0.1c1.4,0.3,2.1,0.7,2.5,0.9C88.9,63.8,87.7,64.3,87,64.5z"></path></svg>